<mxfile host="app.diagrams.net" modified="2021-12-15T23:37:53.350Z" agent="5.0 (Windows NT 10.0; Win64; x64) AppleWebKit/537.36 (KHTML, like Gecko) Chrome/96.0.4664.110 Safari/537.36 Edg/96.0.1054.57" etag="fk31ucHXLOErSEFrTKDX" version="15.9.5" type="github">
  <diagram id="Htl5RmSVC9RBOnccd8LR" name="Page-1">
    <mxGraphModel dx="2031" dy="1077" grid="1" gridSize="10" guides="1" tooltips="1" connect="1" arrows="1" fold="1" page="1" pageScale="1" pageWidth="850" pageHeight="1100" math="0" shadow="0">
      <root>
        <mxCell id="0" />
        <mxCell id="1" parent="0" />
        <mxCell id="Q8NiT6dRRh63ptE_Egzm-1" style="edgeStyle=orthogonalEdgeStyle;rounded=0;orthogonalLoop=1;jettySize=auto;html=1;exitX=1;exitY=0.5;exitDx=0;exitDy=0;entryX=0;entryY=0.5;entryDx=0;entryDy=0;fillColor=#d5e8d4;strokeColor=#82b366;" parent="1" source="Q8NiT6dRRh63ptE_Egzm-2" target="Q8NiT6dRRh63ptE_Egzm-22" edge="1">
          <mxGeometry relative="1" as="geometry">
            <Array as="points">
              <mxPoint x="715" y="80" />
              <mxPoint x="715" y="280" />
            </Array>
          </mxGeometry>
        </mxCell>
        <mxCell id="Q8NiT6dRRh63ptE_Egzm-2" value="null or SheerIDOutOfScope" style="ellipse;whiteSpace=wrap;html=1;fillColor=#f5f5f5;strokeColor=#666666;fontColor=#333333;" parent="1" vertex="1">
          <mxGeometry x="365" y="40" width="120" height="80" as="geometry" />
        </mxCell>
        <mxCell id="Q8NiT6dRRh63ptE_Egzm-3" style="edgeStyle=orthogonalEdgeStyle;rounded=0;orthogonalLoop=1;jettySize=auto;html=1;exitX=1;exitY=0.5;exitDx=0;exitDy=0;entryX=0;entryY=0.5;entryDx=0;entryDy=0;fillColor=#f8cecc;strokeColor=#b85450;" parent="1" source="Q8NiT6dRRh63ptE_Egzm-4" target="Q8NiT6dRRh63ptE_Egzm-23" edge="1">
          <mxGeometry relative="1" as="geometry">
            <mxPoint x="745.0000000000005" y="670" as="targetPoint" />
            <Array as="points" />
          </mxGeometry>
        </mxCell>
        <mxCell id="Q8NiT6dRRh63ptE_Egzm-4" value="UserRiskRejected*" style="ellipse;whiteSpace=wrap;html=1;fillColor=#f8cecc;strokeColor=#b85450;" parent="1" vertex="1">
          <mxGeometry x="365" y="140" width="120" height="80" as="geometry" />
        </mxCell>
        <mxCell id="Q8NiT6dRRh63ptE_Egzm-5" style="edgeStyle=orthogonalEdgeStyle;rounded=0;orthogonalLoop=1;jettySize=auto;html=1;exitX=0.5;exitY=0;exitDx=0;exitDy=0;entryX=0;entryY=0.5;entryDx=0;entryDy=0;" parent="1" source="Q8NiT6dRRh63ptE_Egzm-35" target="Q8NiT6dRRh63ptE_Egzm-4" edge="1">
          <mxGeometry relative="1" as="geometry">
            <mxPoint x="265" y="250" as="sourcePoint" />
          </mxGeometry>
        </mxCell>
        <mxCell id="Q8NiT6dRRh63ptE_Egzm-6" style="edgeStyle=orthogonalEdgeStyle;rounded=0;orthogonalLoop=1;jettySize=auto;html=1;exitX=0.5;exitY=0;exitDx=0;exitDy=0;entryX=0;entryY=0.5;entryDx=0;entryDy=0;" parent="1" source="Q8NiT6dRRh63ptE_Egzm-35" target="Q8NiT6dRRh63ptE_Egzm-9" edge="1">
          <mxGeometry relative="1" as="geometry">
            <mxPoint x="305" y="290" as="sourcePoint" />
          </mxGeometry>
        </mxCell>
        <mxCell id="Q8NiT6dRRh63ptE_Egzm-7" style="edgeStyle=orthogonalEdgeStyle;rounded=0;orthogonalLoop=1;jettySize=auto;html=1;exitX=0.5;exitY=0;exitDx=0;exitDy=0;entryX=0;entryY=0.5;entryDx=0;entryDy=0;" parent="1" source="Q8NiT6dRRh63ptE_Egzm-35" target="Q8NiT6dRRh63ptE_Egzm-11" edge="1">
          <mxGeometry relative="1" as="geometry">
            <mxPoint x="265" y="330" as="sourcePoint" />
          </mxGeometry>
        </mxCell>
        <mxCell id="Q8NiT6dRRh63ptE_Egzm-8" style="edgeStyle=orthogonalEdgeStyle;rounded=0;orthogonalLoop=1;jettySize=auto;html=1;exitX=1;exitY=0.5;exitDx=0;exitDy=0;entryX=0;entryY=0.5;entryDx=0;entryDy=0;fillColor=#d5e8d4;strokeColor=#82b366;" parent="1" source="Q8NiT6dRRh63ptE_Egzm-9" target="Q8NiT6dRRh63ptE_Egzm-22" edge="1">
          <mxGeometry relative="1" as="geometry" />
        </mxCell>
        <mxCell id="Q8NiT6dRRh63ptE_Egzm-9" value="UserRiskApproved" style="ellipse;whiteSpace=wrap;html=1;fillColor=#d5e8d4;strokeColor=#82b366;" parent="1" vertex="1">
          <mxGeometry x="365" y="240" width="120" height="80" as="geometry" />
        </mxCell>
        <mxCell id="Q8NiT6dRRh63ptE_Egzm-10" style="edgeStyle=orthogonalEdgeStyle;rounded=0;orthogonalLoop=1;jettySize=auto;html=1;exitX=1;exitY=0.5;exitDx=0;exitDy=0;entryX=0;entryY=0.5;entryDx=0;entryDy=0;endArrow=classic;endFill=1;" parent="1" source="Q8NiT6dRRh63ptE_Egzm-11" target="Q8NiT6dRRh63ptE_Egzm-41" edge="1">
          <mxGeometry relative="1" as="geometry" />
        </mxCell>
        <mxCell id="Q8NiT6dRRh63ptE_Egzm-11" value="UserRiskChallenge" style="ellipse;whiteSpace=wrap;html=1;fillColor=#fff2cc;strokeColor=#d6b656;" parent="1" vertex="1">
          <mxGeometry x="365" y="330" width="120" height="80" as="geometry" />
        </mxCell>
        <mxCell id="Q8NiT6dRRh63ptE_Egzm-12" style="edgeStyle=orthogonalEdgeStyle;rounded=0;orthogonalLoop=1;jettySize=auto;html=1;exitX=1;exitY=0.5;exitDx=0;exitDy=0;entryX=0;entryY=0.5;entryDx=0;entryDy=0;fillColor=#d5e8d4;strokeColor=#82b366;" parent="1" source="Q8NiT6dRRh63ptE_Egzm-13" target="Q8NiT6dRRh63ptE_Egzm-22" edge="1">
          <mxGeometry relative="1" as="geometry" />
        </mxCell>
        <mxCell id="Q8NiT6dRRh63ptE_Egzm-13" value="SchoolRegistry&lt;br&gt;Approved" style="ellipse;whiteSpace=wrap;html=1;fillColor=#d5e8d4;strokeColor=#82b366;" parent="1" vertex="1">
          <mxGeometry x="360" y="530" width="135" height="80" as="geometry" />
        </mxCell>
        <mxCell id="Q8NiT6dRRh63ptE_Egzm-14" style="edgeStyle=orthogonalEdgeStyle;rounded=0;orthogonalLoop=1;jettySize=auto;html=1;exitX=1;exitY=0.5;exitDx=0;exitDy=0;entryX=0;entryY=0.5;entryDx=0;entryDy=0;endArrow=classic;endFill=1;fillColor=#f8cecc;strokeColor=#b85450;" parent="1" source="Q8NiT6dRRh63ptE_Egzm-15" target="Q8NiT6dRRh63ptE_Egzm-42" edge="1">
          <mxGeometry relative="1" as="geometry" />
        </mxCell>
        <mxCell id="Q8NiT6dRRh63ptE_Egzm-15" value="DocReviewNeeded" style="ellipse;whiteSpace=wrap;html=1;fillColor=#fff2cc;strokeColor=#d6b656;" parent="1" vertex="1">
          <mxGeometry x="365" y="630" width="120" height="80" as="geometry" />
        </mxCell>
        <mxCell id="Q8NiT6dRRh63ptE_Egzm-16" style="edgeStyle=orthogonalEdgeStyle;rounded=0;orthogonalLoop=1;jettySize=auto;html=1;exitX=0.5;exitY=1;exitDx=0;exitDy=0;entryX=0.45;entryY=0.067;entryDx=0;entryDy=0;entryPerimeter=0;" parent="1" source="Q8NiT6dRRh63ptE_Egzm-17" target="Q8NiT6dRRh63ptE_Egzm-24" edge="1">
          <mxGeometry relative="1" as="geometry" />
        </mxCell>
        <mxCell id="Q8NiT6dRRh63ptE_Egzm-17" value="DocReview&lt;br&gt;InProgress" style="ellipse;whiteSpace=wrap;html=1;fillColor=#fff2cc;strokeColor=#d6b656;" parent="1" vertex="1">
          <mxGeometry x="360" y="920" width="130" height="80" as="geometry" />
        </mxCell>
        <mxCell id="Q8NiT6dRRh63ptE_Egzm-18" style="edgeStyle=orthogonalEdgeStyle;rounded=0;orthogonalLoop=1;jettySize=auto;html=1;exitX=1;exitY=0.5;exitDx=0;exitDy=0;entryX=0;entryY=0.5;entryDx=0;entryDy=0;fillColor=#d5e8d4;strokeColor=#82b366;" parent="1" source="Q8NiT6dRRh63ptE_Egzm-19" target="Q8NiT6dRRh63ptE_Egzm-22" edge="1">
          <mxGeometry relative="1" as="geometry">
            <Array as="points">
              <mxPoint x="715" y="760" />
              <mxPoint x="715" y="280" />
            </Array>
          </mxGeometry>
        </mxCell>
        <mxCell id="Q8NiT6dRRh63ptE_Egzm-19" value="DocReviewApproved" style="ellipse;whiteSpace=wrap;html=1;fillColor=#d5e8d4;strokeColor=#82b366;" parent="1" vertex="1">
          <mxGeometry x="365" y="720" width="120" height="80" as="geometry" />
        </mxCell>
        <mxCell id="Q8NiT6dRRh63ptE_Egzm-20" style="edgeStyle=orthogonalEdgeStyle;rounded=0;orthogonalLoop=1;jettySize=auto;html=1;exitX=1;exitY=0.5;exitDx=0;exitDy=0;entryX=0;entryY=0.5;entryDx=0;entryDy=0;fillColor=#f8cecc;strokeColor=#b85450;" parent="1" source="Q8NiT6dRRh63ptE_Egzm-21" target="Q8NiT6dRRh63ptE_Egzm-25" edge="1">
          <mxGeometry relative="1" as="geometry" />
        </mxCell>
        <mxCell id="Q8NiT6dRRh63ptE_Egzm-21" value="DocReviewRejected" style="ellipse;whiteSpace=wrap;html=1;fillColor=#f8cecc;strokeColor=#b85450;" parent="1" vertex="1">
          <mxGeometry x="365" y="820" width="120" height="80" as="geometry" />
        </mxCell>
        <mxCell id="Q8NiT6dRRh63ptE_Egzm-22" value="proceed to signup" style="whiteSpace=wrap;html=1;aspect=fixed;fillColor=#e1d5e7;strokeColor=#9673a6;" parent="1" vertex="1">
          <mxGeometry x="755" y="240" width="80" height="80" as="geometry" />
        </mxCell>
        <mxCell id="Q8NiT6dRRh63ptE_Egzm-23" value="risk reject" style="whiteSpace=wrap;html=1;aspect=fixed;fillColor=#e1d5e7;strokeColor=#9673a6;" parent="1" vertex="1">
          <mxGeometry x="575" y="140" width="80" height="80" as="geometry" />
        </mxCell>
        <mxCell id="Q8NiT6dRRh63ptE_Egzm-24" value="Doc review message" style="rounded=0;whiteSpace=wrap;html=1;fillColor=#dae8fc;strokeColor=#6c8ebf;" parent="1" vertex="1">
          <mxGeometry x="370" y="1030" width="120" height="60" as="geometry" />
        </mxCell>
        <mxCell id="Q8NiT6dRRh63ptE_Egzm-25" value="doc review failed" style="whiteSpace=wrap;html=1;aspect=fixed;fillColor=#e1d5e7;strokeColor=#9673a6;" parent="1" vertex="1">
          <mxGeometry x="575" y="820" width="80" height="80" as="geometry" />
        </mxCell>
        <mxCell id="Q8NiT6dRRh63ptE_Egzm-26" style="edgeStyle=orthogonalEdgeStyle;rounded=0;orthogonalLoop=1;jettySize=auto;html=1;exitX=1;exitY=0.5;exitDx=0;exitDy=0;entryX=0;entryY=0.5;entryDx=0;entryDy=0;" parent="1" source="Q8NiT6dRRh63ptE_Egzm-27" target="Q8NiT6dRRh63ptE_Egzm-35" edge="1">
          <mxGeometry relative="1" as="geometry" />
        </mxCell>
        <mxCell id="Q8NiT6dRRh63ptE_Egzm-27" value="Returning user" style="ellipse;whiteSpace=wrap;html=1;" parent="1" vertex="1">
          <mxGeometry x="65" y="530" width="120" height="80" as="geometry" />
        </mxCell>
        <mxCell id="Q8NiT6dRRh63ptE_Egzm-28" style="edgeStyle=orthogonalEdgeStyle;rounded=0;orthogonalLoop=1;jettySize=auto;html=1;exitX=0.5;exitY=0;exitDx=0;exitDy=0;entryX=0;entryY=0.5;entryDx=0;entryDy=0;" parent="1" source="Q8NiT6dRRh63ptE_Egzm-35" target="Q8NiT6dRRh63ptE_Egzm-2" edge="1">
          <mxGeometry relative="1" as="geometry" />
        </mxCell>
        <mxCell id="Q8NiT6dRRh63ptE_Egzm-29" style="edgeStyle=orthogonalEdgeStyle;rounded=0;orthogonalLoop=1;jettySize=auto;html=1;exitX=0.5;exitY=1;exitDx=0;exitDy=0;entryX=0;entryY=0.5;entryDx=0;entryDy=0;" parent="1" source="Q8NiT6dRRh63ptE_Egzm-35" target="Q8NiT6dRRh63ptE_Egzm-19" edge="1">
          <mxGeometry relative="1" as="geometry" />
        </mxCell>
        <mxCell id="Q8NiT6dRRh63ptE_Egzm-30" style="edgeStyle=orthogonalEdgeStyle;rounded=0;orthogonalLoop=1;jettySize=auto;html=1;exitX=0.5;exitY=1;exitDx=0;exitDy=0;entryX=0;entryY=0.5;entryDx=0;entryDy=0;" parent="1" source="Q8NiT6dRRh63ptE_Egzm-35" target="Q8NiT6dRRh63ptE_Egzm-21" edge="1">
          <mxGeometry relative="1" as="geometry" />
        </mxCell>
        <mxCell id="Q8NiT6dRRh63ptE_Egzm-31" style="edgeStyle=orthogonalEdgeStyle;rounded=0;orthogonalLoop=1;jettySize=auto;html=1;exitX=0.5;exitY=0;exitDx=0;exitDy=0;entryX=1;entryY=0.5;entryDx=0;entryDy=0;" parent="1" source="Q8NiT6dRRh63ptE_Egzm-35" target="Q8NiT6dRRh63ptE_Egzm-39" edge="1">
          <mxGeometry relative="1" as="geometry" />
        </mxCell>
        <mxCell id="Q8NiT6dRRh63ptE_Egzm-32" style="edgeStyle=orthogonalEdgeStyle;rounded=0;orthogonalLoop=1;jettySize=auto;html=1;exitX=0.5;exitY=1;exitDx=0;exitDy=0;entryX=0;entryY=0.5;entryDx=0;entryDy=0;" parent="1" source="Q8NiT6dRRh63ptE_Egzm-35" target="Q8NiT6dRRh63ptE_Egzm-15" edge="1">
          <mxGeometry relative="1" as="geometry">
            <mxPoint x="280" y="670" as="targetPoint" />
          </mxGeometry>
        </mxCell>
        <mxCell id="Q8NiT6dRRh63ptE_Egzm-33" style="edgeStyle=orthogonalEdgeStyle;rounded=0;orthogonalLoop=1;jettySize=auto;html=1;exitX=0.5;exitY=1;exitDx=0;exitDy=0;entryX=0;entryY=0.5;entryDx=0;entryDy=0;" parent="1" source="Q8NiT6dRRh63ptE_Egzm-35" target="Q8NiT6dRRh63ptE_Egzm-17" edge="1">
          <mxGeometry relative="1" as="geometry" />
        </mxCell>
        <mxCell id="Q8NiT6dRRh63ptE_Egzm-34" style="edgeStyle=orthogonalEdgeStyle;rounded=0;orthogonalLoop=1;jettySize=auto;html=1;exitX=1;exitY=0.5;exitDx=0;exitDy=0;entryX=0;entryY=0.5;entryDx=0;entryDy=0;endArrow=classic;endFill=1;" parent="1" source="Q8NiT6dRRh63ptE_Egzm-35" target="Q8NiT6dRRh63ptE_Egzm-13" edge="1">
          <mxGeometry relative="1" as="geometry" />
        </mxCell>
        <mxCell id="Q8NiT6dRRh63ptE_Egzm-35" value="Get User from DB" style="whiteSpace=wrap;html=1;aspect=fixed;fillColor=#dae8fc;strokeColor=#6c8ebf;" parent="1" vertex="1">
          <mxGeometry x="215" y="530" width="80" height="80" as="geometry" />
        </mxCell>
        <mxCell id="Q8NiT6dRRh63ptE_Egzm-36" style="edgeStyle=orthogonalEdgeStyle;rounded=0;orthogonalLoop=1;jettySize=auto;html=1;exitX=0;exitY=0.5;exitDx=0;exitDy=0;entryX=0;entryY=0.5;entryDx=0;entryDy=0;" parent="1" source="Q8NiT6dRRh63ptE_Egzm-39" target="Q8NiT6dRRh63ptE_Egzm-2" edge="1">
          <mxGeometry relative="1" as="geometry">
            <Array as="points">
              <mxPoint x="85" y="450" />
              <mxPoint x="85" y="80" />
            </Array>
          </mxGeometry>
        </mxCell>
        <mxCell id="Q8NiT6dRRh63ptE_Egzm-37" value="code verification&lt;br&gt;adt4t manual upload" style="edgeLabel;html=1;align=center;verticalAlign=middle;resizable=0;points=[];" parent="Q8NiT6dRRh63ptE_Egzm-36" vertex="1" connectable="0">
          <mxGeometry x="-0.138" relative="1" as="geometry">
            <mxPoint as="offset" />
          </mxGeometry>
        </mxCell>
        <mxCell id="Q8NiT6dRRh63ptE_Egzm-38" value="&lt;span style=&quot;color: rgb(0 , 0 , 0) ; font-family: &amp;#34;helvetica&amp;#34; ; font-size: 12px ; font-style: normal ; font-weight: 400 ; letter-spacing: normal ; text-align: center ; text-indent: 0px ; text-transform: none ; word-spacing: 0px ; background-color: rgb(248 , 249 , 250) ; display: inline ; float: none&quot;&gt;email verif.&lt;/span&gt;&lt;br style=&quot;color: rgb(0 , 0 , 0) ; font-family: &amp;#34;helvetica&amp;#34; ; font-size: 12px ; font-style: normal ; font-weight: 400 ; letter-spacing: normal ; text-align: center ; text-indent: 0px ; text-transform: none ; word-spacing: 0px ; background-color: rgb(248 , 249 , 250)&quot;&gt;&lt;span style=&quot;color: rgb(0 , 0 , 0) ; font-family: &amp;#34;helvetica&amp;#34; ; font-size: 12px ; font-style: normal ; font-weight: 400 ; letter-spacing: normal ; text-align: center ; text-indent: 0px ; text-transform: none ; word-spacing: 0px ; background-color: rgb(248 , 249 , 250) ; display: inline ; float: none&quot;&gt;aad verif,&lt;/span&gt;&lt;br style=&quot;color: rgb(0 , 0 , 0) ; font-family: &amp;#34;helvetica&amp;#34; ; font-size: 12px ; font-style: normal ; font-weight: 400 ; letter-spacing: normal ; text-align: center ; text-indent: 0px ; text-transform: none ; word-spacing: 0px ; background-color: rgb(248 , 249 , 250)&quot;&gt;&lt;span style=&quot;color: rgb(0 , 0 , 0) ; font-family: &amp;#34;helvetica&amp;#34; ; font-size: 12px ; font-style: normal ; font-weight: 400 ; letter-spacing: normal ; text-align: center ; text-indent: 0px ; text-transform: none ; word-spacing: 0px ; background-color: rgb(248 , 249 , 250) ; display: inline ; float: none&quot;&gt;shibboleth&lt;/span&gt;" style="edgeStyle=orthogonalEdgeStyle;rounded=0;orthogonalLoop=1;jettySize=auto;html=1;exitX=0.5;exitY=0;exitDx=0;exitDy=0;entryX=0.5;entryY=1;entryDx=0;entryDy=0;" parent="1" source="Q8NiT6dRRh63ptE_Egzm-39" target="Q8NiT6dRRh63ptE_Egzm-40" edge="1">
          <mxGeometry relative="1" as="geometry" />
        </mxCell>
        <mxCell id="Q8NiT6dRRh63ptE_Egzm-39" value="&lt;p class=&quot;MsoListParagraph&quot; style=&quot;text-indent: -0.25in&quot;&gt;&amp;nbsp; &amp;nbsp; &amp;nbsp; &amp;nbsp; &amp;nbsp;UserRiskNotCalled&lt;/p&gt;" style="ellipse;whiteSpace=wrap;html=1;fillColor=#f5f5f5;strokeColor=#666666;fontColor=#333333;" parent="1" vertex="1">
          <mxGeometry x="95" y="410" width="120" height="80" as="geometry" />
        </mxCell>
        <mxCell id="Q8NiT6dRRh63ptE_Egzm-40" value="User Risk**" style="whiteSpace=wrap;html=1;aspect=fixed;fillColor=#dae8fc;strokeColor=#6c8ebf;" parent="1" vertex="1">
          <mxGeometry x="115" y="220" width="80" height="80" as="geometry" />
        </mxCell>
        <mxCell id="Q8NiT6dRRh63ptE_Egzm-41" value="School Registry**" style="whiteSpace=wrap;html=1;aspect=fixed;fillColor=#dae8fc;strokeColor=#6c8ebf;" parent="1" vertex="1">
          <mxGeometry x="515" y="330" width="80" height="80" as="geometry" />
        </mxCell>
        <mxCell id="Q8NiT6dRRh63ptE_Egzm-42" value="sheer id reject" style="whiteSpace=wrap;html=1;aspect=fixed;fillColor=#e1d5e7;strokeColor=#9673a6;" parent="1" vertex="1">
          <mxGeometry x="755" y="630" width="80" height="80" as="geometry" />
        </mxCell>
        <mxCell id="Q8NiT6dRRh63ptE_Egzm-44" value="** follow link to same&amp;nbsp;bubble &lt;br&gt;in new user flow" style="text;html=1;align=center;verticalAlign=middle;resizable=0;points=[];autosize=1;strokeColor=none;fillColor=none;" parent="1" vertex="1">
          <mxGeometry x="40" y="1060" width="170" height="30" as="geometry" />
        </mxCell>
        <mxCell id="bJW2fjCjPbbXh4AyBN2F-1" value="* get latest user risk status" style="text;html=1;align=center;verticalAlign=middle;resizable=0;points=[];autosize=1;strokeColor=none;fillColor=none;" vertex="1" parent="1">
          <mxGeometry x="40" y="1020" width="160" height="20" as="geometry" />
        </mxCell>
        <mxCell id="bJW2fjCjPbbXh4AyBN2F-2" value="" style="rounded=0;whiteSpace=wrap;html=1;fillColor=#ffe6cc;strokeColor=#d79b00;opacity=40;" vertex="1" parent="1">
          <mxGeometry x="310" y="720" width="530" height="400" as="geometry" />
        </mxCell>
        <mxCell id="bJW2fjCjPbbXh4AyBN2F-3" value="Out of scope for Part 1" style="text;html=1;align=center;verticalAlign=middle;resizable=0;points=[];autosize=1;strokeColor=none;fillColor=none;" vertex="1" parent="1">
          <mxGeometry x="695" y="1090" width="140" height="20" as="geometry" />
        </mxCell>
      </root>
    </mxGraphModel>
  </diagram>
</mxfile>
